<?xml version="1.0" encoding="UTF-8" standalone="no"?>
<svg
   width="10.0mm"
   height="9.999748mm"
   viewBox="187.9943958333333 18.526892291666666 13.64085833333333 13.640514374999999"
   version="1.1"
   id="svg_canonical"
   sodipodi:docname="Davies_1900H_Clone_template.svg"
   inkscape:version="1.4.3 (0d15f75, 2025-12-25)"
   xmlns:inkscape="http://www.inkscape.org/namespaces/inkscape"
   xmlns:sodipodi="http://sodipodi.sourceforge.net/DTD/sodipodi-0.dtd"
   xmlns="http://www.w3.org/2000/svg"
   xmlns:svg="http://www.w3.org/2000/svg">
  <defs
     id="defs1" />
  <sodipodi:namedview
     id="namedview1"
     pagecolor="#ffffff"
     bordercolor="#000000"
     borderopacity="0.25"
     inkscape:showpageshadow="2"
     inkscape:pageopacity="0.0"
     inkscape:pagecheckerboard="0"
     inkscape:deskcolor="#d1d1d1"
     inkscape:document-units="mm"
     inkscape:zoom="34.387763"
     inkscape:cx="15.921361"
     inkscape:cy="18.058749"
     inkscape:window-width="3840"
     inkscape:window-height="2066"
     inkscape:window-x="-11"
     inkscape:window-y="-11"
     inkscape:window-maximized="1"
     inkscape:current-layer="g9" />
  <g
     id="g9"
     inkscape:label="Davies_1900H_12.7mm"
     transform="translate(101.19114,-64.834584)">
    <path
       id="path4642"
       d="m 100.38108,90.181739 c 0,0.85318 -0.944345,1.519814 -1.258519,2.277401 -0.325599,0.785793 -0.14132,1.921389 -0.720819,2.500894 -0.579506,0.579504 -1.715102,0.394863 -2.500537,0.720462 -0.757589,0.314531 -1.424579,1.258522 -2.277758,1.258522 -0.852831,0 -1.519821,-0.943991 -2.27741,-1.258165 -0.785435,-0.325956 -1.92138,-0.14132 -2.500885,-0.720819 -0.579156,-0.579505 -0.286258,-1.779409 -0.60502,-2.548704 2.072208,2.658014 -1.140987,-1.043934 -1.373966,-2.229591 -0.164435,-0.836827 0.944341,-1.519821 1.258516,-2.277409 0.325956,-0.785435 0.14132,-1.921381 0.720819,-2.500886 0.579505,-0.579504 1.715101,-0.394871 2.500536,-0.72047 0.757589,-0.31453 1.424579,-1.258514 2.27741,-1.258514 0.853179,0 1.520169,0.943984 2.277758,1.258514 0.785435,0.325599 1.921381,0.14132 2.500537,0.72082 0.579504,0.579505 0.39522,1.715101 0.720819,2.500536 0.314174,0.757588 1.258519,1.424579 1.258519,2.277409"
       style="display:inline;fill:#f0f0ef;fill-opacity:1;fill-rule:nonzero;stroke:none;stroke-width:0.349521"
       inkscape:label="body_color:primary_shadow"
       sodipodi:nodetypes="ccccscccscccscccc" />
    <path
       id="path4643"
       d="m 93.861307,89.652315 h -0.475718 v -6.055783 h 0.475718 z"
       style="fill:#000000;fill-opacity:1;fill-rule:nonzero;stroke:none;stroke-width:0.319309"
       inkscape:label="indicator_line_invert" />
  </g>
</svg>
