<?xml version="1.0" encoding="UTF-8" standalone="no"?>
<svg
   width="10.0mm"
   height="9.999806mm"
   viewBox="162.20810416666666 17.3650275 19.049999999999997 19.04962958333333"
   version="1.1"
   id="svg_canonical"
   sodipodi:docname="KN1611_ABS_template.svg"
   inkscape:version="1.4.3 (0d15f75, 2025-12-25)"
   xmlns:inkscape="http://www.inkscape.org/namespaces/inkscape"
   xmlns:sodipodi="http://sodipodi.sourceforge.net/DTD/sodipodi-0.dtd"
   xmlns="http://www.w3.org/2000/svg"
   xmlns:svg="http://www.w3.org/2000/svg">
  <sodipodi:namedview
     id="namedview1"
     pagecolor="#ffffff"
     bordercolor="#000000"
     borderopacity="0.25"
     inkscape:showpageshadow="2"
     inkscape:pageopacity="0.0"
     inkscape:pagecheckerboard="0"
     inkscape:deskcolor="#d1d1d1"
     inkscape:document-units="mm"
     inkscape:zoom="34.387563"
     inkscape:cx="14.089396"
     inkscape:cy="15.238067"
     inkscape:window-width="3840"
     inkscape:window-height="2066"
     inkscape:window-x="-11"
     inkscape:window-y="-11"
     inkscape:window-maximized="1"
     inkscape:current-layer="g8" />
  <defs
     id="defs_canonical">
    <linearGradient
       x1="0"
       y1="0"
       x2="1"
       y2="0"
       gradientUnits="userSpaceOnUse"
       gradientTransform="matrix(19.049999,0,0,19.049999,66.145954,221.19148)"
       spreadMethod="pad"
       id="linearGradient4577">
      <stop
         style="stop-color:#e5e5e5;stop-opacity:1;"
         offset="0"
         id="stop4575" />
      <stop
         style="stop-opacity:1;stop-color:#bdbcbc"
         offset="0.494506"
         id="stop4576" />
      <stop
         style="stop-color:#e5e5e5;stop-opacity:1;"
         offset="1"
         id="stop4577" />
    </linearGradient>
  </defs>
  <g
     id="g8"
     inkscape:label="Davies_1510_19mm"
     transform="translate(96.062322,-194.30165)">
    <path
       id="path4577"
       d="m 66.145852,221.19132 c 0,5.26062 4.264378,9.52499 9.525,9.52499 v 0 c 5.259916,0 9.524999,-4.26437 9.524999,-9.52499 v 0 c 0,-5.26027 -4.265083,-9.52465 -9.524999,-9.52465 v 0 c -5.260622,0 -9.525,4.26438 -9.525,9.52465"
       style="fill:url(#linearGradient4577);stroke:none;stroke-width:0.352778"
       inkscape:label="body_color:primary_gradient:hldl_shadow" />
    <path
       id="path4578"
       d="m 78.81221,229.33024 c 0,0.73451 -0.427765,1.01439 -1.253464,1.19363 0,0 -0.597974,0.20983 -1.920693,0.20983 -1.110289,0 -1.93164,-0.20983 -1.93164,-0.20983 -0.796869,-0.18508 -1.286183,-0.45912 -1.286183,-1.19363 V 213.1934 c 0,-0.73414 0.560057,-1.11967 1.269647,-1.32951 0,0 0.764713,-0.2187 1.945848,-0.20984 1.234232,0.009 1.906485,0.20984 1.906485,0.20984 0.726844,0.20358 1.27,0.59537 1.27,1.32951 z"
       style="display:inline;fill:#f0f0ef;fill-opacity:1;fill-rule:nonzero;stroke:none;stroke-width:0.362768"
       inkscape:label="face_color:primary_shadow"
       sodipodi:nodetypes="sssssssssss" />
    <path
       id="path4579"
       d="m 75.787268,218.0904 h -0.342547 v -6.14957 h 0.342547 z"
       style="fill:#100f0d;fill-opacity:1;fill-rule:nonzero;stroke:none;stroke-width:0.351278"
       inkscape:label="indicator_line_invert" />
  </g>
</svg>
